<?xml version="1.0" encoding="utf-8"?>
<svg version="1.0" viewBox="0 0 32 32" preserveAspectRatio="xMidYMid meet" xmlns="http://www.w3.org/2000/svg">
  <g transform="matrix(0.019869, 0, 0, -0.028212, -0.696441, 30.062941)" fill="#000000" stroke="none" style=""/>
  <g transform="matrix(0.016302, -0.000803, -0.001334, -0.027095, -15.117221, 139.056588)" fill="#000000" stroke="none">
    <path d="M 2363.764 4734.912 C 2305.045 4689.258 1929.15 4077.057 1926.526 4022.042 C 1923.788 3964.684 1988.233 3912.011 2061.141 3912.011 C 2154.88 3912.011 2187.857 3948.297 2397.71 4292.44 C 2504.232 4466.855 2593.328 4619.027 2595.432 4631.901 C 2603.727 4681.065 2597.125 4698.624 2557.083 4732.571 C 2499.741 4778.221 2422.427 4779.393 2363.764 4734.912 Z" style="fill: rgb(8, 172, 196);" transform="matrix(0.998311, -0.034965, 0.096589, 0.998309, -415.355991, 86.44899)"/>
    <path d="M 1650.182 4626.727 C 1625.818 4615.021 1545.821 4560.005 1474.694 4503.819 C 1347.937 4404.321 1344.848 4401.98 1351.489 4353.988 C 1356.972 4313.018 1375.308 4291.948 1476.932 4207.669 C 1648.67 4064.859 1707.292 4046.131 1798.041 4108.17 C 1838.013 4135.094 1847.665 4150.31 1849.619 4191.28 C 1851.684 4234.592 1843.373 4247.467 1784.714 4296.63 C 1748.968 4327.065 1719.117 4356.33 1719.396 4362.181 C 1719.677 4368.034 1752.317 4397.299 1790.97 4427.734 C 1871.302 4489.772 1887.096 4540.106 1843.595 4595.122 C 1801.581 4650.137 1724.822 4663.013 1650.182 4626.727 Z" style="fill: rgb(8, 172, 196);" transform="matrix(0.998311, -0.034965, 0.096589, 0.998309, -418.497889, 63.613484)"/>
    <path d="M 2746.649 4592.03 C 2698.309 4576.811 2658.655 4525.306 2657.909 4478.485 C 2657.834 4445.708 2671.763 4425.81 2723.263 4382.499 C 2759.008 4352.064 2788.858 4322.798 2788.524 4315.775 C 2788.243 4309.923 2763.264 4285.342 2732.444 4263.1 C 2626.147 4187.014 2610.726 4113.271 2689.995 4059.424 C 2773.557 4002.067 2834.025 4021.967 3025.561 4169.457 C 3161.526 4274.807 3163.128 4277.147 3156.486 4325.14 C 3151 4366.111 3132.662 4387.181 3031.042 4471.461 C 2876.489 4600.222 2832.744 4618.953 2746.649 4592.03 Z" style="fill: rgb(8, 172, 196);" transform="matrix(0.998311, -0.034965, 0.096589, 0.998309, -412.000006, 108.672432)"/>
  </g>
</svg>
